<mxfile host="Electron" modified="2023-12-11T15:23:41.080Z" agent="Mozilla/5.0 (Windows NT 10.0; Win64; x64) AppleWebKit/537.36 (KHTML, like Gecko) draw.io/21.6.8 Chrome/114.0.5735.289 Electron/25.5.0 Safari/537.36" etag="fuD8HTVs0DZLd3KTJZrv" compressed="false" version="21.6.8" type="device">
  <diagram name="Страница-1" id="Страница-1">
    <mxGraphModel dx="209" dy="606" grid="0" gridSize="9.8425" guides="1" tooltips="1" connect="1" arrows="1" fold="1" page="1" pageScale="1" pageWidth="827" pageHeight="1169" math="0" shadow="0">
      <root>
        <mxCell id="0" />
        <mxCell id="tpW0L4eKJtAbM24Pp-hq-4" value="Границы" style="" parent="0" />
        <mxCell id="XYD-opMogOewsWYCsBqt-0" value="" style="rounded=0;whiteSpace=wrap;html=1;fillColor=none;strokeWidth=4;" parent="tpW0L4eKJtAbM24Pp-hq-4" vertex="1">
          <mxGeometry x="896" y="19.68" width="737.85" height="1131.89" as="geometry" />
        </mxCell>
        <mxCell id="SdAma7Yzy6EULZfb18XB-18" style="edgeStyle=orthogonalEdgeStyle;rounded=0;orthogonalLoop=1;jettySize=auto;html=1;entryX=1;entryY=0.5;entryDx=0;entryDy=0;startArrow=classic;startFill=1;" parent="tpW0L4eKJtAbM24Pp-hq-4" source="SdAma7Yzy6EULZfb18XB-1" target="SdAma7Yzy6EULZfb18XB-8" edge="1">
          <mxGeometry relative="1" as="geometry" />
        </mxCell>
        <mxCell id="0PXypUpM02n66jB6z06W-2" style="edgeStyle=orthogonalEdgeStyle;rounded=0;orthogonalLoop=1;jettySize=auto;html=1;entryX=0.5;entryY=1;entryDx=0;entryDy=0;startArrow=classic;startFill=1;" parent="tpW0L4eKJtAbM24Pp-hq-4" source="SdAma7Yzy6EULZfb18XB-1" target="0PXypUpM02n66jB6z06W-1" edge="1">
          <mxGeometry relative="1" as="geometry" />
        </mxCell>
        <mxCell id="SdAma7Yzy6EULZfb18XB-1" value="&lt;span style=&quot;font-size: 22px;&quot;&gt;Блок&lt;br&gt;коммутации&lt;/span&gt;" style="rounded=0;whiteSpace=wrap;html=1;fontSize=22;strokeWidth=3;align=center;fontFamily=Arial;fontStyle=2" parent="tpW0L4eKJtAbM24Pp-hq-4" vertex="1">
          <mxGeometry x="1283.888" y="533.22" width="180" height="120" as="geometry" />
        </mxCell>
        <mxCell id="SdAma7Yzy6EULZfb18XB-8" value="Блок точек доступа" style="rounded=0;whiteSpace=wrap;html=1;fontSize=22;strokeWidth=3;align=center;fontFamily=Arial;fontStyle=2" parent="tpW0L4eKJtAbM24Pp-hq-4" vertex="1">
          <mxGeometry x="1044" y="533.2199999999999" width="180" height="120" as="geometry" />
        </mxCell>
        <mxCell id="0Q3MbLgIJzOWKhahqc9n-1" style="edgeStyle=orthogonalEdgeStyle;rounded=0;orthogonalLoop=1;jettySize=auto;html=1;exitX=0.5;exitY=0;exitDx=0;exitDy=0;entryX=0.5;entryY=1;entryDx=0;entryDy=0;startArrow=classic;startFill=1;" parent="tpW0L4eKJtAbM24Pp-hq-4" source="SdAma7Yzy6EULZfb18XB-9" target="SdAma7Yzy6EULZfb18XB-8" edge="1">
          <mxGeometry relative="1" as="geometry" />
        </mxCell>
        <mxCell id="SdAma7Yzy6EULZfb18XB-9" value="Блок мобильных оконечных устройств" style="rounded=0;whiteSpace=wrap;html=1;fontSize=22;strokeWidth=3;align=center;fontFamily=Arial;fontStyle=2" parent="tpW0L4eKJtAbM24Pp-hq-4" vertex="1">
          <mxGeometry x="1044" y="769.1499999999999" width="180" height="120" as="geometry" />
        </mxCell>
        <mxCell id="SdAma7Yzy6EULZfb18XB-39" value="Блок&lt;br style=&quot;font-size: 21px;&quot;&gt;&lt;span style=&quot;font-size: 21px;&quot;&gt;выхода в Интернет&lt;/span&gt;" style="rounded=0;whiteSpace=wrap;html=1;fontSize=22;strokeWidth=3;align=center;fontFamily=Arial;fontStyle=2" parent="tpW0L4eKJtAbM24Pp-hq-4" vertex="1">
          <mxGeometry x="1283.8780000000002" y="96.99999999999994" width="180" height="120" as="geometry" />
        </mxCell>
        <mxCell id="XYD-opMogOewsWYCsBqt-1" value="" style="rounded=0;whiteSpace=wrap;html=1;strokeWidth=4;fillColor=none;" parent="tpW0L4eKJtAbM24Pp-hq-4" vertex="1">
          <mxGeometry x="896" y="19.68" width="275.59" height="55.12" as="geometry" />
        </mxCell>
        <mxCell id="0PXypUpM02n66jB6z06W-1" value="&lt;font style=&quot;font-size: 21px;&quot;&gt;Блок&lt;br&gt;маршрутизации&lt;/font&gt;" style="rounded=0;whiteSpace=wrap;html=1;fontSize=22;strokeWidth=3;align=center;fontFamily=Arial;fontStyle=2" parent="tpW0L4eKJtAbM24Pp-hq-4" vertex="1">
          <mxGeometry x="1283.8905" y="297.00249999999994" width="180" height="120" as="geometry" />
        </mxCell>
        <mxCell id="6WoStRdQxXb1Q1FWyHls-0" value="Блок&amp;nbsp;оконечных устройств" style="rounded=0;whiteSpace=wrap;html=1;fontSize=22;strokeWidth=3;align=center;fontFamily=Arial;fontStyle=2" parent="tpW0L4eKJtAbM24Pp-hq-4" vertex="1">
          <mxGeometry x="1283.8825" y="769.1524999999998" width="180" height="120" as="geometry" />
        </mxCell>
        <mxCell id="6WoStRdQxXb1Q1FWyHls-1" style="edgeStyle=orthogonalEdgeStyle;rounded=0;orthogonalLoop=1;jettySize=auto;html=1;entryX=0.5;entryY=1;entryDx=0;entryDy=0;startArrow=classic;startFill=1;" parent="tpW0L4eKJtAbM24Pp-hq-4" edge="1">
          <mxGeometry relative="1" as="geometry">
            <mxPoint x="1373.963" y="769.4424999999999" as="sourcePoint" />
            <mxPoint x="1373.963" y="653.2249999999999" as="targetPoint" />
          </mxGeometry>
        </mxCell>
        <mxCell id="tbZZe2lk5rpfPnoiLe6d-2" style="edgeStyle=orthogonalEdgeStyle;rounded=0;orthogonalLoop=1;jettySize=auto;html=1;startArrow=classic;startFill=1;exitX=0.5;exitY=1;exitDx=0;exitDy=0;" parent="tpW0L4eKJtAbM24Pp-hq-4" source="SdAma7Yzy6EULZfb18XB-39" target="0PXypUpM02n66jB6z06W-1" edge="1">
          <mxGeometry relative="1" as="geometry">
            <mxPoint x="1382.0025" y="175.00249999999997" as="sourcePoint" />
            <mxPoint x="1320.0025" y="175.00249999999997" as="targetPoint" />
          </mxGeometry>
        </mxCell>
        <mxCell id="tpW0L4eKJtAbM24Pp-hq-6" value="Рамка" parent="0" />
        <mxCell id="Izu4CDzaR0ki_h7jihql-112" style="vsdxID=3;fillColor=#FFFFFF;gradientColor=none;shape=stencil(nY9LDoAgDERP0z3SI/i5BwkoRAUC+Lu9kGo0Lt3NtK/tFLCOWngFnMUU3Kg2I5MGbIBzY7UKJmUF2ALWvQtqCG6xkrwXhSxqdmvZsNNcxViZ4ewgT64jdDL2hf4E7wsXmsWThd549765c4l+xvYE);strokeColor=#000000;strokeWidth=4;spacingTop=-1;spacingBottom=-1;spacingLeft=-1;spacingRight=-1;labelBackgroundColor=#ffffff;rounded=0;html=1;whiteSpace=wrap;fontFamily=Arial;fontStyle=2" parent="tpW0L4eKJtAbM24Pp-hq-6" vertex="1">
          <mxGeometry x="895.88" y="930.1300000000001" width="740" height="220" as="geometry" />
        </mxCell>
        <mxCell id="Izu4CDzaR0ki_h7jihql-113" style="vsdxID=28;edgeStyle=none;startArrow=none;endArrow=none;startSize=5;endSize=5;strokeWidth=4;strokeColor=#000000;spacingTop=-1;spacingBottom=-1;spacingLeft=-1;spacingRight=-1;verticalAlign=middle;html=1;labelBackgroundColor=#ffffff;rounded=0;fontFamily=Arial;fontStyle=2" parent="tpW0L4eKJtAbM24Pp-hq-6" edge="1">
          <mxGeometry relative="1" as="geometry">
            <Array as="points" />
            <mxPoint x="923.8800000000001" y="930.1299999999999" as="sourcePoint" />
            <mxPoint x="923.8800000000001" y="1030.1299999999999" as="targetPoint" />
          </mxGeometry>
        </mxCell>
        <mxCell id="Izu4CDzaR0ki_h7jihql-114" style="vsdxID=27;edgeStyle=none;startArrow=none;endArrow=none;startSize=5;endSize=5;strokeColor=#000000;spacingTop=-1;spacingBottom=-1;spacingLeft=-1;spacingRight=-1;verticalAlign=middle;html=1;labelBackgroundColor=#ffffff;rounded=0;fontFamily=Arial;fontStyle=2" parent="tpW0L4eKJtAbM24Pp-hq-6" edge="1">
          <mxGeometry relative="1" as="geometry">
            <mxPoint as="offset" />
            <Array as="points" />
            <mxPoint x="895.8800000000001" y="1130.1299999999999" as="sourcePoint" />
            <mxPoint x="1155.88" y="1130.1299999999999" as="targetPoint" />
          </mxGeometry>
        </mxCell>
        <mxCell id="Izu4CDzaR0ki_h7jihql-115" style="vsdxID=26;edgeStyle=none;startArrow=none;endArrow=none;startSize=5;endSize=5;strokeColor=#000000;spacingTop=-1;spacingBottom=-1;spacingLeft=-1;spacingRight=-1;verticalAlign=middle;html=1;labelBackgroundColor=#ffffff;rounded=0;fontFamily=Arial;fontStyle=2" parent="tpW0L4eKJtAbM24Pp-hq-6" edge="1">
          <mxGeometry relative="1" as="geometry">
            <mxPoint as="offset" />
            <Array as="points" />
            <mxPoint x="895.8800000000001" y="1110.1299999999999" as="sourcePoint" />
            <mxPoint x="1155.88" y="1110.1299999999999" as="targetPoint" />
          </mxGeometry>
        </mxCell>
        <mxCell id="Izu4CDzaR0ki_h7jihql-116" style="vsdxID=25;edgeStyle=none;startArrow=none;endArrow=none;startSize=5;endSize=5;strokeColor=#000000;spacingTop=-1;spacingBottom=-1;spacingLeft=-1;spacingRight=-1;verticalAlign=middle;html=1;labelBackgroundColor=#ffffff;rounded=0;fontFamily=Arial;fontStyle=2" parent="tpW0L4eKJtAbM24Pp-hq-6" edge="1">
          <mxGeometry relative="1" as="geometry">
            <mxPoint as="offset" />
            <Array as="points" />
            <mxPoint x="895.8800000000001" y="1090.1299999999999" as="sourcePoint" />
            <mxPoint x="1155.88" y="1090.1299999999999" as="targetPoint" />
          </mxGeometry>
        </mxCell>
        <mxCell id="Izu4CDzaR0ki_h7jihql-117" style="vsdxID=24;edgeStyle=none;startArrow=none;endArrow=none;startSize=5;endSize=5;strokeColor=#000000;spacingTop=-1;spacingBottom=-1;spacingLeft=-1;spacingRight=-1;verticalAlign=middle;html=1;labelBackgroundColor=#ffffff;rounded=0;fontFamily=Arial;fontStyle=2" parent="tpW0L4eKJtAbM24Pp-hq-6" edge="1">
          <mxGeometry relative="1" as="geometry">
            <mxPoint as="offset" />
            <Array as="points" />
            <mxPoint x="895.8800000000001" y="1070.1299999999999" as="sourcePoint" />
            <mxPoint x="1155.88" y="1070.1299999999999" as="targetPoint" />
          </mxGeometry>
        </mxCell>
        <mxCell id="Izu4CDzaR0ki_h7jihql-118" style="vsdxID=23;edgeStyle=none;startArrow=none;endArrow=none;startSize=5;endSize=5;strokeColor=#000000;spacingTop=-1;spacingBottom=-1;spacingLeft=-1;spacingRight=-1;verticalAlign=middle;html=1;labelBackgroundColor=#ffffff;rounded=0;fontFamily=Arial;fontStyle=2" parent="tpW0L4eKJtAbM24Pp-hq-6" edge="1">
          <mxGeometry relative="1" as="geometry">
            <mxPoint as="offset" />
            <Array as="points" />
            <mxPoint x="895.8800000000001" y="1050.1299999999999" as="sourcePoint" />
            <mxPoint x="1155.88" y="1050.1299999999999" as="targetPoint" />
          </mxGeometry>
        </mxCell>
        <mxCell id="Izu4CDzaR0ki_h7jihql-119" style="vsdxID=22;edgeStyle=none;startArrow=none;endArrow=none;startSize=5;endSize=5;strokeWidth=4;strokeColor=#000000;spacingTop=-1;spacingBottom=-1;spacingLeft=-1;spacingRight=-1;verticalAlign=middle;html=1;labelBackgroundColor=#ffffff;rounded=0;fontFamily=Arial;fontStyle=2" parent="tpW0L4eKJtAbM24Pp-hq-6" edge="1">
          <mxGeometry relative="1" as="geometry">
            <mxPoint as="offset" />
            <Array as="points" />
            <mxPoint x="895.8800000000001" y="1030.1299999999999" as="sourcePoint" />
            <mxPoint x="1155.88" y="1030.1299999999999" as="targetPoint" />
          </mxGeometry>
        </mxCell>
        <mxCell id="Izu4CDzaR0ki_h7jihql-120" style="vsdxID=21;edgeStyle=none;startArrow=none;endArrow=none;startSize=5;endSize=5;strokeWidth=4;strokeColor=#000000;spacingTop=-1;spacingBottom=-1;spacingLeft=-1;spacingRight=-1;verticalAlign=middle;html=1;labelBackgroundColor=#ffffff;rounded=0;fontFamily=Arial;fontStyle=2" parent="tpW0L4eKJtAbM24Pp-hq-6" edge="1">
          <mxGeometry relative="1" as="geometry">
            <mxPoint as="offset" />
            <Array as="points" />
            <mxPoint x="895.8800000000001" y="1010.1299999999999" as="sourcePoint" />
            <mxPoint x="1155.88" y="1010.1299999999999" as="targetPoint" />
          </mxGeometry>
        </mxCell>
        <mxCell id="Izu4CDzaR0ki_h7jihql-121" style="vsdxID=20;edgeStyle=none;startArrow=none;endArrow=none;startSize=5;endSize=5;strokeColor=#000000;spacingTop=-1;spacingBottom=-1;spacingLeft=-1;spacingRight=-1;verticalAlign=middle;html=1;labelBackgroundColor=#ffffff;rounded=0;fontFamily=Arial;fontStyle=2" parent="tpW0L4eKJtAbM24Pp-hq-6" edge="1">
          <mxGeometry relative="1" as="geometry">
            <mxPoint as="offset" />
            <Array as="points" />
            <mxPoint x="895.8800000000001" y="990.1299999999999" as="sourcePoint" />
            <mxPoint x="1155.88" y="990.1299999999999" as="targetPoint" />
          </mxGeometry>
        </mxCell>
        <mxCell id="Izu4CDzaR0ki_h7jihql-122" style="vsdxID=19;edgeStyle=none;startArrow=none;endArrow=none;startSize=5;endSize=5;strokeColor=#000000;spacingTop=-1;spacingBottom=-1;spacingLeft=-1;spacingRight=-1;verticalAlign=middle;html=1;labelBackgroundColor=#ffffff;rounded=0;fontFamily=Arial;fontStyle=2" parent="tpW0L4eKJtAbM24Pp-hq-6" edge="1">
          <mxGeometry relative="1" as="geometry">
            <mxPoint as="offset" />
            <Array as="points" />
            <mxPoint x="895.8800000000001" y="970.1299999999999" as="sourcePoint" />
            <mxPoint x="1155.88" y="970.1299999999999" as="targetPoint" />
          </mxGeometry>
        </mxCell>
        <mxCell id="Izu4CDzaR0ki_h7jihql-123" style="vsdxID=18;edgeStyle=none;startArrow=none;endArrow=none;startSize=5;endSize=5;strokeColor=#000000;spacingTop=-1;spacingBottom=-1;spacingLeft=-1;spacingRight=-1;verticalAlign=middle;html=1;labelBackgroundColor=#ffffff;rounded=0;fontFamily=Arial;fontStyle=2" parent="tpW0L4eKJtAbM24Pp-hq-6" edge="1">
          <mxGeometry relative="1" as="geometry">
            <mxPoint as="offset" />
            <Array as="points" />
            <mxPoint x="895.8800000000001" y="950.1299999999999" as="sourcePoint" />
            <mxPoint x="1155.88" y="950.1299999999999" as="targetPoint" />
          </mxGeometry>
        </mxCell>
        <mxCell id="Izu4CDzaR0ki_h7jihql-124" style="vsdxID=17;edgeStyle=none;startArrow=none;endArrow=none;startSize=5;endSize=5;strokeWidth=4;strokeColor=#000000;spacingTop=-1;spacingBottom=-1;spacingLeft=-1;spacingRight=-1;verticalAlign=middle;html=1;labelBackgroundColor=#ffffff;rounded=0;fontFamily=Arial;fontStyle=2" parent="tpW0L4eKJtAbM24Pp-hq-6" edge="1">
          <mxGeometry relative="1" as="geometry">
            <Array as="points" />
            <mxPoint x="963.8800000000001" y="930.1299999999999" as="sourcePoint" />
            <mxPoint x="963.8800000000001" y="1150.1299999999999" as="targetPoint" />
          </mxGeometry>
        </mxCell>
        <mxCell id="Izu4CDzaR0ki_h7jihql-125" style="vsdxID=16;edgeStyle=none;startArrow=none;endArrow=none;startSize=5;endSize=5;strokeWidth=4;strokeColor=#000000;spacingTop=-1;spacingBottom=-1;spacingLeft=-1;spacingRight=-1;verticalAlign=middle;html=1;labelBackgroundColor=#ffffff;rounded=0;fontFamily=Arial;fontStyle=2" parent="tpW0L4eKJtAbM24Pp-hq-6" edge="1">
          <mxGeometry relative="1" as="geometry">
            <Array as="points" />
            <mxPoint x="1055.88" y="930.1299999999999" as="sourcePoint" />
            <mxPoint x="1055.88" y="1150.1299999999999" as="targetPoint" />
          </mxGeometry>
        </mxCell>
        <mxCell id="Izu4CDzaR0ki_h7jihql-126" style="vsdxID=15;edgeStyle=none;startArrow=none;endArrow=none;startSize=5;endSize=5;strokeWidth=4;strokeColor=#000000;spacingTop=-1;spacingBottom=-1;spacingLeft=-1;spacingRight=-1;verticalAlign=middle;html=1;labelBackgroundColor=#ffffff;rounded=0;fontFamily=Arial;fontStyle=2" parent="tpW0L4eKJtAbM24Pp-hq-6" edge="1">
          <mxGeometry relative="1" as="geometry">
            <Array as="points" />
            <mxPoint x="1115.88" y="930.1299999999999" as="sourcePoint" />
            <mxPoint x="1115.88" y="1150.1299999999999" as="targetPoint" />
          </mxGeometry>
        </mxCell>
        <mxCell id="Izu4CDzaR0ki_h7jihql-127" style="vsdxID=14;edgeStyle=none;startArrow=none;endArrow=none;startSize=5;endSize=5;strokeWidth=4;strokeColor=#000000;spacingTop=-1;spacingBottom=-1;spacingLeft=-1;spacingRight=-1;verticalAlign=middle;html=1;labelBackgroundColor=#ffffff;rounded=0;fontFamily=Arial;fontStyle=2" parent="tpW0L4eKJtAbM24Pp-hq-6" edge="1">
          <mxGeometry relative="1" as="geometry">
            <Array as="points" />
            <mxPoint x="1565.88" y="990.1299999999999" as="sourcePoint" />
            <mxPoint x="1565.88" y="1070.1299999999999" as="targetPoint" />
          </mxGeometry>
        </mxCell>
        <mxCell id="Izu4CDzaR0ki_h7jihql-128" style="vsdxID=11;edgeStyle=none;startArrow=none;endArrow=none;startSize=5;endSize=5;strokeWidth=4;strokeColor=#000000;spacingTop=-1;spacingBottom=-1;spacingLeft=-1;spacingRight=-1;verticalAlign=middle;html=1;labelBackgroundColor=#ffffff;rounded=0;fontFamily=Arial;fontStyle=2" parent="tpW0L4eKJtAbM24Pp-hq-6" edge="1">
          <mxGeometry relative="1" as="geometry">
            <Array as="points" />
            <mxPoint x="1515.88" y="1070.1299999999999" as="sourcePoint" />
            <mxPoint x="1515.88" y="1090.1299999999999" as="targetPoint" />
          </mxGeometry>
        </mxCell>
        <mxCell id="Izu4CDzaR0ki_h7jihql-129" style="vsdxID=10;edgeStyle=none;startArrow=none;endArrow=none;startSize=5;endSize=5;strokeWidth=4;strokeColor=#000000;spacingTop=-1;spacingBottom=-1;spacingLeft=-1;spacingRight=-1;verticalAlign=middle;html=1;labelBackgroundColor=#ffffff;rounded=0;fontFamily=Arial;fontStyle=2" parent="tpW0L4eKJtAbM24Pp-hq-6" edge="1">
          <mxGeometry relative="1" as="geometry">
            <Array as="points" />
            <mxPoint x="1495.88" y="990.1299999999999" as="sourcePoint" />
            <mxPoint x="1495.88" y="1070.1299999999999" as="targetPoint" />
          </mxGeometry>
        </mxCell>
        <mxCell id="Izu4CDzaR0ki_h7jihql-131" style="vsdxID=388;edgeStyle=none;startArrow=none;endArrow=none;startSize=5;endSize=5;strokeColor=#000000;spacingTop=-1;spacingBottom=-1;spacingLeft=-1;spacingRight=-1;verticalAlign=middle;html=1;labelBackgroundColor=#ffffff;rounded=0;fontFamily=Arial;fontStyle=2" parent="tpW0L4eKJtAbM24Pp-hq-6" edge="1">
          <mxGeometry relative="1" as="geometry">
            <Array as="points" />
            <mxPoint x="1475.88" y="1008.1299999999999" as="sourcePoint" />
            <mxPoint x="1475.88" y="1070.1299999999999" as="targetPoint" />
          </mxGeometry>
        </mxCell>
        <mxCell id="Izu4CDzaR0ki_h7jihql-135" style="vsdxID=387;edgeStyle=none;startArrow=none;endArrow=none;startSize=5;endSize=5;strokeColor=#000000;spacingTop=-1;spacingBottom=-1;spacingLeft=-1;spacingRight=-1;verticalAlign=middle;html=1;labelBackgroundColor=#ffffff;rounded=0;fontFamily=Arial;fontStyle=2" parent="tpW0L4eKJtAbM24Pp-hq-6" edge="1">
          <mxGeometry relative="1" as="geometry">
            <Array as="points" />
            <mxPoint x="1455.88" y="1008.1299999999999" as="sourcePoint" />
            <mxPoint x="1455.88" y="1070.1299999999999" as="targetPoint" />
          </mxGeometry>
        </mxCell>
        <mxCell id="Izu4CDzaR0ki_h7jihql-136" style="vsdxID=9;edgeStyle=none;startArrow=none;endArrow=none;startSize=5;endSize=5;strokeWidth=4;strokeColor=#000000;spacingTop=-1;spacingBottom=-1;spacingLeft=-1;spacingRight=-1;verticalAlign=middle;html=1;labelBackgroundColor=#ffffff;rounded=0;fontFamily=Arial;fontStyle=2" parent="tpW0L4eKJtAbM24Pp-hq-6" edge="1">
          <mxGeometry relative="1" as="geometry">
            <mxPoint as="offset" />
            <Array as="points" />
            <mxPoint x="1435.88" y="1070.1299999999999" as="sourcePoint" />
            <mxPoint x="1635.88" y="1070.1299999999999" as="targetPoint" />
          </mxGeometry>
        </mxCell>
        <mxCell id="Izu4CDzaR0ki_h7jihql-137" style="vsdxID=8;edgeStyle=none;startArrow=none;endArrow=none;startSize=5;endSize=5;strokeWidth=4;strokeColor=#000000;spacingTop=-1;spacingBottom=-1;spacingLeft=-1;spacingRight=-1;verticalAlign=middle;html=1;labelBackgroundColor=#ffffff;rounded=0;fontFamily=Arial;fontStyle=2" parent="tpW0L4eKJtAbM24Pp-hq-6" edge="1">
          <mxGeometry relative="1" as="geometry">
            <mxPoint as="offset" />
            <Array as="points" />
            <mxPoint x="1435.88" y="1010.1299999999999" as="sourcePoint" />
            <mxPoint x="1635.88" y="1010.1299999999999" as="targetPoint" />
          </mxGeometry>
        </mxCell>
        <mxCell id="Izu4CDzaR0ki_h7jihql-138" style="vsdxID=7;edgeStyle=none;startArrow=none;endArrow=none;startSize=5;endSize=5;strokeWidth=4;strokeColor=#000000;spacingTop=-1;spacingBottom=-1;spacingLeft=-1;spacingRight=-1;verticalAlign=middle;html=1;labelBackgroundColor=#ffffff;rounded=0;fontFamily=Arial;fontStyle=2" parent="tpW0L4eKJtAbM24Pp-hq-6" edge="1">
          <mxGeometry relative="1" as="geometry">
            <Array as="points" />
            <mxPoint x="1435.88" y="990.1299999999999" as="sourcePoint" />
            <mxPoint x="1435.88" y="1150.1299999999999" as="targetPoint" />
          </mxGeometry>
        </mxCell>
        <mxCell id="Izu4CDzaR0ki_h7jihql-139" style="vsdxID=6;edgeStyle=none;startArrow=none;endArrow=none;startSize=5;endSize=5;strokeWidth=4;strokeColor=#000000;spacingTop=-1;spacingBottom=-1;spacingLeft=-1;spacingRight=-1;verticalAlign=middle;html=1;labelBackgroundColor=#ffffff;rounded=0;fontFamily=Arial;fontStyle=2" parent="tpW0L4eKJtAbM24Pp-hq-6" edge="1">
          <mxGeometry relative="1" as="geometry">
            <Array as="points" />
            <mxPoint x="1635.88" y="1090.1299999999999" as="sourcePoint" />
            <mxPoint x="1155.88" y="1090.1299999999999" as="targetPoint" />
          </mxGeometry>
        </mxCell>
        <mxCell id="Izu4CDzaR0ki_h7jihql-140" style="vsdxID=4;edgeStyle=none;startArrow=none;endArrow=none;startSize=5;endSize=5;strokeWidth=4;strokeColor=#000000;spacingTop=-1;spacingBottom=-1;spacingLeft=-1;spacingRight=-1;verticalAlign=middle;html=1;labelBackgroundColor=#ffffff;rounded=0;fontFamily=Arial;fontStyle=2" parent="tpW0L4eKJtAbM24Pp-hq-6" edge="1">
          <mxGeometry relative="1" as="geometry">
            <Array as="points" />
            <mxPoint x="1155.88" y="930.1299999999999" as="sourcePoint" />
            <mxPoint x="1155.88" y="1150.1299999999999" as="targetPoint" />
          </mxGeometry>
        </mxCell>
        <mxCell id="Izu4CDzaR0ki_h7jihql-141" style="vsdxID=5;edgeStyle=none;startArrow=none;endArrow=none;startSize=5;endSize=5;strokeWidth=4;strokeColor=#000000;spacingTop=-1;spacingBottom=-1;spacingLeft=-1;spacingRight=-1;verticalAlign=middle;html=1;labelBackgroundColor=#ffffff;rounded=0;fontFamily=Arial;fontStyle=2" parent="tpW0L4eKJtAbM24Pp-hq-6" edge="1">
          <mxGeometry relative="1" as="geometry">
            <Array as="points" />
            <mxPoint x="1635.88" y="990.1299999999999" as="sourcePoint" />
            <mxPoint x="1155.88" y="990.1299999999999" as="targetPoint" />
          </mxGeometry>
        </mxCell>
        <mxCell id="Izu4CDzaR0ki_h7jihql-142" value="&lt;font style=&quot;font-size: 8px; direction: ltr; letter-spacing: 0px; line-height: 120%; opacity: 1;&quot;&gt;&lt;span&gt;Изм&lt;br&gt;&lt;/span&gt;&lt;/font&gt;" style="verticalAlign=middle;align=center;vsdxID=29;fillColor=none;gradientColor=none;shape=stencil(nZBLDoAgDERP0z3SIyjew0SURgSD+Lu9kMZoXLhwN9O+tukAlrNpJg1SzDH4QW/URgNYgZTkjA4UkwJUgGXng+6DX1zLfmoymdXo17xh5zmRJ6Q42BWCfc2oJfdAr+Yv+AP9Cb7OJ3H/2JG1HNGz/84klThPVCc=);strokeColor=none;strokeWidth=4;spacingTop=-1;spacingBottom=-1;spacingLeft=-1;spacingRight=-1;labelBackgroundColor=none;rounded=0;html=1;whiteSpace=wrap;fontFamily=Arial;fontStyle=2" parent="tpW0L4eKJtAbM24Pp-hq-6" vertex="1">
          <mxGeometry x="897.88" y="1012.1300000000001" width="24" height="16" as="geometry" />
        </mxCell>
        <mxCell id="Izu4CDzaR0ki_h7jihql-143" value="&lt;font style=&quot;font-size: 8px; direction: ltr; letter-spacing: 0px; line-height: 120%; opacity: 1;&quot;&gt;&lt;span&gt;Лист&lt;br&gt;&lt;/span&gt;&lt;/font&gt;" style="verticalAlign=middle;align=center;vsdxID=30;fillColor=none;gradientColor=none;shape=stencil(nZBLDoAgDERP0z3SIyjew0SURgSD+Lu9kMZoXLhwN9O+tukAlrNpJg1SzDH4QW/URgNYgZTkjA4UkwJUgGXng+6DX1zLfmoymdXo17xh5zmRJ6Q42BWCfc2oJfdAr+Yv+AP9Cb7OJ3H/2JG1HNGz/84klThPVCc=);strokeColor=none;strokeWidth=4;spacingTop=-1;spacingBottom=-1;spacingLeft=-1;spacingRight=-1;labelBackgroundColor=none;rounded=0;html=1;whiteSpace=wrap;fontFamily=Arial;fontStyle=2" parent="tpW0L4eKJtAbM24Pp-hq-6" vertex="1">
          <mxGeometry x="925.88" y="1012.1300000000001" width="36" height="16" as="geometry" />
        </mxCell>
        <mxCell id="Izu4CDzaR0ki_h7jihql-144" value="&lt;font style=&quot;font-size: 8px; direction: ltr; letter-spacing: 0px; line-height: 120%; opacity: 1;&quot;&gt;&lt;span&gt;№ документа&lt;br&gt;&lt;/span&gt;&lt;/font&gt;" style="verticalAlign=middle;align=center;vsdxID=31;fillColor=none;gradientColor=none;shape=stencil(nZBLDoAgDERP0z3SIyjew0SURgSD+Lu9kMZoXLhwN9O+tukAlrNpJg1SzDH4QW/URgNYgZTkjA4UkwJUgGXng+6DX1zLfmoymdXo17xh5zmRJ6Q42BWCfc2oJfdAr+Yv+AP9Cb7OJ3H/2JG1HNGz/84klThPVCc=);strokeColor=none;strokeWidth=4;spacingTop=-1;spacingBottom=-1;spacingLeft=-1;spacingRight=-1;labelBackgroundColor=none;rounded=0;html=1;whiteSpace=wrap;fontFamily=Arial;fontStyle=2" parent="tpW0L4eKJtAbM24Pp-hq-6" vertex="1">
          <mxGeometry x="965.88" y="1012.1300000000001" width="88" height="16" as="geometry" />
        </mxCell>
        <mxCell id="Izu4CDzaR0ki_h7jihql-145" value="&lt;font style=&quot;font-size: 8px; direction: ltr; letter-spacing: 0px; line-height: 120%; opacity: 1;&quot;&gt;&lt;span&gt;Подпись&lt;br&gt;&lt;/span&gt;&lt;/font&gt;" style="verticalAlign=middle;align=center;vsdxID=32;fillColor=none;gradientColor=none;shape=stencil(nZBLDoAgDERP0z3SIyjew0SURgSD+Lu9kMZoXLhwN9O+tukAlrNpJg1SzDH4QW/URgNYgZTkjA4UkwJUgGXng+6DX1zLfmoymdXo17xh5zmRJ6Q42BWCfc2oJfdAr+Yv+AP9Cb7OJ3H/2JG1HNGz/84klThPVCc=);strokeColor=none;strokeWidth=4;spacingTop=-1;spacingBottom=-1;spacingLeft=-1;spacingRight=-1;labelBackgroundColor=none;rounded=0;html=1;whiteSpace=wrap;fontFamily=Arial;fontStyle=2" parent="tpW0L4eKJtAbM24Pp-hq-6" vertex="1">
          <mxGeometry x="1057.88" y="1012.1300000000001" width="56" height="16" as="geometry" />
        </mxCell>
        <mxCell id="Izu4CDzaR0ki_h7jihql-146" value="&lt;font style=&quot;font-size: 8px; direction: ltr; letter-spacing: 0px; line-height: 120%; opacity: 1;&quot;&gt;&lt;span&gt;Дата&lt;br&gt;&lt;/span&gt;&lt;/font&gt;" style="verticalAlign=middle;align=center;vsdxID=33;fillColor=none;gradientColor=none;shape=stencil(nZBLDoAgDERP0z3SIyjew0SURgSD+Lu9kMZoXLhwN9O+tukAlrNpJg1SzDH4QW/URgNYgZTkjA4UkwJUgGXng+6DX1zLfmoymdXo17xh5zmRJ6Q42BWCfc2oJfdAr+Yv+AP9Cb7OJ3H/2JG1HNGz/84klThPVCc=);strokeColor=none;strokeWidth=4;spacingTop=-1;spacingBottom=-1;spacingLeft=-1;spacingRight=-1;labelBackgroundColor=none;rounded=0;html=1;whiteSpace=wrap;fontFamily=Arial;fontStyle=2" parent="tpW0L4eKJtAbM24Pp-hq-6" vertex="1">
          <mxGeometry x="1117.88" y="1012.1300000000001" width="36" height="16" as="geometry" />
        </mxCell>
        <mxCell id="Izu4CDzaR0ki_h7jihql-147" value="&lt;font style=&quot;font-size: 8px; direction: ltr; letter-spacing: 0px; line-height: 120%; opacity: 1;&quot;&gt;&lt;span&gt;Лит.&lt;br&gt;&lt;/span&gt;&lt;/font&gt;" style="verticalAlign=middle;align=center;vsdxID=34;fillColor=none;gradientColor=none;shape=stencil(nZBLDoAgDERP0z3SIyjew0SURgSD+Lu9kMZoXLhwN9O+tukAlrNpJg1SzDH4QW/URgNYgZTkjA4UkwJUgGXng+6DX1zLfmoymdXo17xh5zmRJ6Q42BWCfc2oJfdAr+Yv+AP9Cb7OJ3H/2JG1HNGz/84klThPVCc=);strokeColor=none;strokeWidth=4;spacingTop=-1;spacingBottom=-1;spacingLeft=-1;spacingRight=-1;labelBackgroundColor=none;rounded=0;html=1;whiteSpace=wrap;fontFamily=Arial;fontStyle=2" parent="tpW0L4eKJtAbM24Pp-hq-6" vertex="1">
          <mxGeometry x="1437.88" y="992.1300000000001" width="56" height="16" as="geometry" />
        </mxCell>
        <mxCell id="Izu4CDzaR0ki_h7jihql-148" value="&lt;font style=&quot;font-size: 8px; direction: ltr; letter-spacing: 0px; line-height: 120%; opacity: 1;&quot;&gt;&lt;span&gt;Масса&lt;br&gt;&lt;/span&gt;&lt;/font&gt;" style="verticalAlign=middle;align=center;vsdxID=35;fillColor=none;gradientColor=none;shape=stencil(nZBLDoAgDERP0z3SIyjew0SURgSD+Lu9kMZoXLhwN9O+tukAlrNpJg1SzDH4QW/URgNYgZTkjA4UkwJUgGXng+6DX1zLfmoymdXo17xh5zmRJ6Q42BWCfc2oJfdAr+Yv+AP9Cb7OJ3H/2JG1HNGz/84klThPVCc=);strokeColor=none;strokeWidth=4;spacingTop=-1;spacingBottom=-1;spacingLeft=-1;spacingRight=-1;labelBackgroundColor=none;rounded=0;html=1;whiteSpace=wrap;fontFamily=Arial;fontStyle=2" parent="tpW0L4eKJtAbM24Pp-hq-6" vertex="1">
          <mxGeometry x="1497.88" y="992.1300000000001" width="66" height="16" as="geometry" />
        </mxCell>
        <mxCell id="Izu4CDzaR0ki_h7jihql-149" value="&lt;font style=&quot;font-size: 8px; direction: ltr; letter-spacing: 0px; line-height: 120%; opacity: 1;&quot;&gt;&lt;span&gt;Масштаб&lt;br&gt;&lt;/span&gt;&lt;/font&gt;" style="verticalAlign=middle;align=center;vsdxID=36;fillColor=none;gradientColor=none;shape=stencil(nZBLDoAgDERP0z3SIyjew0SURgSD+Lu9kMZoXLhwN9O+tukAlrNpJg1SzDH4QW/URgNYgZTkjA4UkwJUgGXng+6DX1zLfmoymdXo17xh5zmRJ6Q42BWCfc2oJfdAr+Yv+AP9Cb7OJ3H/2JG1HNGz/84klThPVCc=);strokeColor=none;strokeWidth=4;spacingTop=-1;spacingBottom=-1;spacingLeft=-1;spacingRight=-1;labelBackgroundColor=none;rounded=0;html=1;whiteSpace=wrap;fontFamily=Arial;fontStyle=2" parent="tpW0L4eKJtAbM24Pp-hq-6" vertex="1">
          <mxGeometry x="1567.88" y="992.1300000000001" width="66" height="16" as="geometry" />
        </mxCell>
        <mxCell id="Izu4CDzaR0ki_h7jihql-150" value="&lt;font style=&quot;font-size: 8px; direction: ltr; letter-spacing: 0px; line-height: 120%; opacity: 1;&quot;&gt;&lt;span&gt;Лист &lt;br&gt;&lt;/span&gt;&lt;/font&gt;" style="verticalAlign=middle;align=center;vsdxID=37;fillColor=none;gradientColor=none;shape=stencil(nZBLDoAgDERP0z3SIyjew0SURgSD+Lu9kMZoXLhwN9O+tukAlrNpJg1SzDH4QW/URgNYgZTkjA4UkwJUgGXng+6DX1zLfmoymdXo17xh5zmRJ6Q42BWCfc2oJfdAr+Yv+AP9Cb7OJ3H/2JG1HNGz/84klThPVCc=);strokeColor=none;strokeWidth=4;spacingTop=-1;spacingBottom=-1;spacingLeft=-1;spacingRight=-1;labelBackgroundColor=none;rounded=0;html=1;whiteSpace=wrap;fontFamily=Arial;fontStyle=2" parent="tpW0L4eKJtAbM24Pp-hq-6" vertex="1">
          <mxGeometry x="1437.88" y="1072.13" width="76" height="16" as="geometry" />
        </mxCell>
        <mxCell id="Izu4CDzaR0ki_h7jihql-151" value="&lt;font style=&quot;font-size: 8px; direction: ltr; letter-spacing: 0px; line-height: 120%; opacity: 1;&quot;&gt;&lt;span&gt;Листов &lt;/span&gt;&lt;/font&gt;&lt;font style=&quot;font-size: 8px; direction: ltr; letter-spacing: 0px; line-height: 120%; opacity: 1;&quot;&gt;&lt;span&gt;1&lt;br&gt;&lt;/span&gt;&lt;/font&gt;" style="verticalAlign=middle;align=center;vsdxID=38;fillColor=none;gradientColor=none;shape=stencil(nZBLDoAgDERP0z3SIyjew0SURgSD+Lu9kMZoXLhwN9O+tukAlrNpJg1SzDH4QW/URgNYgZTkjA4UkwJUgGXng+6DX1zLfmoymdXo17xh5zmRJ6Q42BWCfc2oJfdAr+Yv+AP9Cb7OJ3H/2JG1HNGz/84klThPVCc=);strokeColor=none;strokeWidth=4;spacingTop=-1;spacingBottom=-1;spacingLeft=-1;spacingRight=-1;labelBackgroundColor=none;rounded=0;html=1;whiteSpace=wrap;fontFamily=Arial;fontStyle=2" parent="tpW0L4eKJtAbM24Pp-hq-6" vertex="1">
          <mxGeometry x="1517.88" y="1072.13" width="116" height="16" as="geometry" />
        </mxCell>
        <mxCell id="Izu4CDzaR0ki_h7jihql-152" value="&lt;p style=&quot;margin-left: 0 ; margin-right: 0 ; margin-top: 0px ; margin-bottom: 0px ; text-indent: 0 ; direction: rtl&quot;&gt;&lt;font style=&quot;font-size: 12px; direction: ltr; letter-spacing: 0px; line-height: 120%; opacity: 1;&quot;&gt;&lt;span&gt;.Разраб&lt;br&gt;&lt;/span&gt;&lt;/font&gt;&lt;/p&gt;" style="verticalAlign=middle;align=right;vsdxID=39;fillColor=none;gradientColor=none;shape=stencil(nZBLDoAgDERP0z3SIyjew0SURgSD+Lu9kMZoXLhwN9O+tukAlrNpJg1SzDH4QW/URgNYgZTkjA4UkwJUgGXng+6DX1zLfmoymdXo17xh5zmRJ6Q42BWCfc2oJfdAr+Yv+AP9Cb7OJ3H/2JG1HNGz/84klThPVCc=);strokeColor=none;strokeWidth=4;spacingTop=-1;spacingBottom=-1;spacingLeft=-1;spacingRight=-1;labelBackgroundColor=none;rounded=0;html=1;whiteSpace=wrap;fontFamily=Arial;fontStyle=2" parent="tpW0L4eKJtAbM24Pp-hq-6" vertex="1">
          <mxGeometry x="875.88" y="1034.13" width="68" height="16" as="geometry" />
        </mxCell>
        <mxCell id="Izu4CDzaR0ki_h7jihql-153" value="&lt;p style=&quot;margin-left: 0 ; margin-right: 0 ; margin-top: 0px ; margin-bottom: 0px ; text-indent: 0 ; direction: rtl&quot;&gt;&lt;font style=&quot;font-size: 12px; direction: ltr; letter-spacing: 0px; line-height: 120%; opacity: 1;&quot;&gt;&lt;span&gt;.Пров&lt;br&gt;&lt;/span&gt;&lt;/font&gt;&lt;/p&gt;" style="verticalAlign=middle;align=right;vsdxID=40;fillColor=none;gradientColor=none;shape=stencil(nZBLDoAgDERP0z3SIyjew0SURgSD+Lu9kMZoXLhwN9O+tukAlrNpJg1SzDH4QW/URgNYgZTkjA4UkwJUgGXng+6DX1zLfmoymdXo17xh5zmRJ6Q42BWCfc2oJfdAr+Yv+AP9Cb7OJ3H/2JG1HNGz/84klThPVCc=);strokeColor=none;strokeWidth=4;spacingTop=-1;spacingBottom=-1;spacingLeft=-1;spacingRight=-1;labelBackgroundColor=none;rounded=0;html=1;whiteSpace=wrap;fontFamily=Arial;fontStyle=2" parent="tpW0L4eKJtAbM24Pp-hq-6" vertex="1">
          <mxGeometry x="868.88" y="1050.13" width="64" height="20" as="geometry" />
        </mxCell>
        <mxCell id="Izu4CDzaR0ki_h7jihql-154" value="&lt;p style=&quot;margin-left: 0 ; margin-right: 0 ; margin-top: 0px ; margin-bottom: 0px ; text-indent: 0 ; direction: rtl&quot;&gt;&lt;font style=&quot;direction: ltr; letter-spacing: 0px; line-height: 120%; opacity: 1;&quot;&gt;&lt;span&gt;&lt;font style=&quot;font-size: 36px&quot;&gt;ГУИР.400201.114 С1&lt;/font&gt;&lt;/span&gt;&lt;span style=&quot;font-size: 28px&quot;&gt;&lt;br&gt;&lt;/span&gt;&lt;/font&gt;&lt;/p&gt;" style="verticalAlign=middle;align=center;vsdxID=222;fillColor=none;gradientColor=none;shape=stencil(nZBLDoAgDERP0z3SIyjew0SURgSD+Lu9kMZoXLhwN9O+tukAlrNpJg1SzDH4QW/URgNYgZTkjA4UkwJUgGXng+6DX1zLfmoymdXo17xh5zmRJ6Q42BWCfc2oJfdAr+Yv+AP9Cb7OJ3H/2JG1HNGz/84klThPVCc=);strokeColor=none;spacingTop=-1;spacingBottom=-1;spacingLeft=-1;spacingRight=-1;labelBackgroundColor=none;rounded=0;html=1;whiteSpace=wrap;fontFamily=Arial;fontStyle=2" parent="tpW0L4eKJtAbM24Pp-hq-6" vertex="1">
          <mxGeometry x="1155.88" y="931.9300000000001" width="480" height="60" as="geometry" />
        </mxCell>
        <mxCell id="Izu4CDzaR0ki_h7jihql-155" value="&lt;font style=&quot;font-size: 20px; direction: ltr; letter-spacing: 0px; line-height: 120%; opacity: 1;&quot;&gt;&lt;span&gt;У&lt;br&gt;&lt;/span&gt;&lt;/font&gt;" style="verticalAlign=middle;align=center;vsdxID=233;fillColor=none;gradientColor=none;shape=stencil(nZBLDoAgDERP0z3SIyjew0SURgSD+Lu9kMZoXLhwN9O+tukAlrNpJg1SzDH4QW/URgNYgZTkjA4UkwJUgGXng+6DX1zLfmoymdXo17xh5zmRJ6Q42BWCfc2oJfdAr+Yv+AP9Cb7OJ3H/2JG1HNGz/84klThPVCc=);strokeColor=none;spacingTop=-1;spacingBottom=-1;spacingLeft=-1;spacingRight=-1;labelBackgroundColor=none;rounded=0;html=1;whiteSpace=wrap;fontFamily=Arial;fontStyle=2" parent="tpW0L4eKJtAbM24Pp-hq-6" vertex="1">
          <mxGeometry x="1393.88" y="1030.13" width="141" height="16" as="geometry" />
        </mxCell>
        <mxCell id="Izu4CDzaR0ki_h7jihql-156" value="&lt;font style=&quot;font-size: 12px; direction: ltr; letter-spacing: 0px; line-height: 120%; opacity: 1;&quot;&gt;&lt;span&gt;Якунин&lt;br&gt;&lt;/span&gt;&lt;/font&gt;" style="verticalAlign=middle;align=left;vsdxID=236;fillColor=none;gradientColor=none;shape=stencil(nZBLDoAgDERP0z3SIyjew0SURgSD+Lu9kMZoXLhwN9O+tukAlrNpJg1SzDH4QW/URgNYgZTkjA4UkwJUgGXng+6DX1zLfmoymdXo17xh5zmRJ6Q42BWCfc2oJfdAr+Yv+AP9Cb7OJ3H/2JG1HNGz/84klThPVCc=);strokeColor=none;spacingTop=-1;spacingBottom=-1;spacingLeft=-1;spacingRight=-1;labelBackgroundColor=none;rounded=0;html=1;whiteSpace=wrap;fontFamily=Arial;fontStyle=2" parent="tpW0L4eKJtAbM24Pp-hq-6" vertex="1">
          <mxGeometry x="965.88" y="1033.13" width="90" height="16" as="geometry" />
        </mxCell>
        <mxCell id="Izu4CDzaR0ki_h7jihql-157" value="Русакович" style="verticalAlign=middle;align=left;vsdxID=237;fillColor=none;gradientColor=none;shape=stencil(nZBLDoAgDERP0z3SIyjew0SURgSD+Lu9kMZoXLhwN9O+tukAlrNpJg1SzDH4QW/URgNYgZTkjA4UkwJUgGXng+6DX1zLfmoymdXo17xh5zmRJ6Q42BWCfc2oJfdAr+Yv+AP9Cb7OJ3H/2JG1HNGz/84klThPVCc=);strokeColor=none;spacingTop=-1;spacingBottom=-1;spacingLeft=-1;spacingRight=-1;labelBackgroundColor=none;rounded=0;html=1;whiteSpace=wrap;fontFamily=Arial;fontStyle=2" parent="tpW0L4eKJtAbM24Pp-hq-6" vertex="1">
          <mxGeometry x="965.88" y="1052.13" width="90" height="16" as="geometry" />
        </mxCell>
        <mxCell id="Izu4CDzaR0ki_h7jihql-158" value="&lt;font style=&quot;font-size: 22px; direction: ltr; letter-spacing: 0px; line-height: 120%; opacity: 1;&quot;&gt;&lt;span&gt;ЭВМ, гр.050504&lt;/span&gt;&lt;/font&gt;&lt;font style=&quot;font-size: 22px; direction: ltr; letter-spacing: 0px; line-height: 120%; opacity: 1;&quot;&gt;&lt;span&gt;&lt;br&gt;&lt;/span&gt;&lt;/font&gt;" style="verticalAlign=middle;align=center;vsdxID=262;fillColor=none;gradientColor=none;shape=stencil(nZBLDoAgDERP0z3SIyjew0SURgSD+Lu9kMZoXLhwN9O+tukAlrNpJg1SzDH4QW/URgNYgZTkjA4UkwJUgGXng+6DX1zLfmoymdXo17xh5zmRJ6Q42BWCfc2oJfdAr+Yv+AP9Cb7OJ3H/2JG1HNGz/84klThPVCc=);strokeColor=none;spacingTop=-1;spacingBottom=-1;spacingLeft=-1;spacingRight=-1;labelBackgroundColor=none;rounded=0;html=1;whiteSpace=wrap;fontFamily=Arial;fontStyle=2" parent="tpW0L4eKJtAbM24Pp-hq-6" vertex="1">
          <mxGeometry x="1435.88" y="1091.93" width="194" height="60" as="geometry" />
        </mxCell>
        <mxCell id="Izu4CDzaR0ki_h7jihql-159" value="&lt;p style=&quot;margin: 0px; text-indent: 0px; direction: rtl;&quot;&gt;&lt;font style=&quot;direction: ltr; letter-spacing: 0px; line-height: 120%; opacity: 1;&quot;&gt;&lt;font style=&quot;font-size: 28px;&quot;&gt;ГУИР.400201.114 С1&lt;/font&gt;&lt;span style=&quot;font-size: 30px;&quot;&gt;&lt;br style=&quot;font-size: 30px&quot;&gt;&lt;/span&gt;&lt;/font&gt;&lt;/p&gt;" style="verticalAlign=middle;align=center;vsdxID=275;rotation=180;fillColor=none;gradientColor=none;shape=stencil(nZBLDoAgDERP0z3SIyjew0SURgSD+Lu9kMZoXLhwN9O+tukAlrNpJg1SzDH4QW/URgNYgZTkjA4UkwJUgGXng+6DX1zLfmoymdXo17xh5zmRJ6Q42BWCfc2oJfdAr+Yv+AP9Cb7OJ3H/2JG1HNGz/84klThPVCc=);strokeColor=none;spacingTop=-1;spacingBottom=-1;spacingLeft=-1;spacingRight=-1;labelBackgroundColor=none;rounded=0;html=1;whiteSpace=wrap;fontSize=30;fontFamily=Arial;fontStyle=2" parent="tpW0L4eKJtAbM24Pp-hq-6" vertex="1">
          <mxGeometry x="896" y="19.690000000000012" width="275.59" height="55.117999999999995" as="geometry" />
        </mxCell>
        <mxCell id="Izu4CDzaR0ki_h7jihql-160" value="&lt;p style=&quot;font-style: normal; margin: 0cm; font-size: 22px;&quot; class=&quot;MsoNormal&quot;&gt;&lt;i style=&quot;&quot;&gt;&lt;font style=&quot;font-size: 22px;&quot;&gt;Локальная компьютерная сеть.&lt;/font&gt;&lt;/i&gt;&lt;/p&gt;&lt;span style=&quot;font-style: normal; font-size: 22px;&quot; lang=&quot;RU&quot;&gt;&lt;i style=&quot;&quot;&gt;&lt;font style=&quot;font-size: 22px;&quot;&gt;Схема структурная&lt;/font&gt;&lt;/i&gt;&lt;/span&gt;" style="verticalAlign=middle;align=center;vsdxID=565;fillColor=none;gradientColor=none;shape=stencil(nZBLDoAgDERP0z3SIyjew0SURgSD+Lu9kMZoXLhwN9O+tukAlrNpJg1SzDH4QW/URgNYgZTkjA4UkwJUgGXng+6DX1zLfmoymdXo17xh5zmRJ6Q42BWCfc2oJfdAr+Yv+AP9Cb7OJ3H/2JG1HNGz/84klThPVCc=);strokeColor=none;spacingTop=-1;spacingBottom=-1;spacingLeft=-1;spacingRight=-1;labelBackgroundColor=none;rounded=0;html=1;whiteSpace=wrap;fontFamily=Arial;fontStyle=2" parent="tpW0L4eKJtAbM24Pp-hq-6" vertex="1">
          <mxGeometry x="1155.88" y="992.1300000000001" width="280" height="100" as="geometry" />
        </mxCell>
        <mxCell id="tpW0L4eKJtAbM24Pp-hq-5" value="Надписи" parent="0" />
        <mxCell id="tpW0L4eKJtAbM24Pp-hq-7" value="Связи" parent="0" />
        <mxCell id="tpW0L4eKJtAbM24Pp-hq-3" value="Сущности" parent="0" />
      </root>
    </mxGraphModel>
  </diagram>
</mxfile>
